HIERARCHY
ROOT Hips
{
    OFFSET 0.000000 0.000000 0.000000
    CHANNELS 6 Xposition Yposition Zposition Zrotation Xrotation Yrotation
    JOINT Spine
    {
        OFFSET -0.000000 7.305680 0.000000
        CHANNELS 3 Zrotation Xrotation Yrotation
        JOINT Spine1
        {
            OFFSET -0.000000 20.356600 0.000000
            CHANNELS 3 Zrotation Xrotation Yrotation
            JOINT Neck
            {
                OFFSET -0.000000 22.138500 0.000000
                CHANNELS 3 Zrotation Xrotation Yrotation
                JOINT Head
                {
                    OFFSET -0.000000 13.809501 1.781870
                    CHANNELS 3 Zrotation Xrotation Yrotation
                    End Site
                    {
                        OFFSET -0.000000 17.818779 0.000000
                    }
                }
            }
            JOINT LeftShoulder
            {
                OFFSET 3.599130 17.990000 0.023591
                CHANNELS 3 Zrotation Xrotation Yrotation
                JOINT LeftArm
                {
                    OFFSET 12.560999 0.000000 0.000000
                    CHANNELS 3 Zrotation Xrotation Yrotation
                    JOINT LeftForeArm
                    {
                        OFFSET 22.903299 0.000000 0.000000
                        CHANNELS 3 Zrotation Xrotation Yrotation
                        JOINT LeftHand
                        {
                            OFFSET 21.865299 0.000000 0.000000
                            CHANNELS 3 Zrotation Xrotation Yrotation
                            JOINT LeftHandThumb1
                            {
                                OFFSET 1.853710 -2.106480 2.949080
                                CHANNELS 3 Zrotation Xrotation Yrotation
                                JOINT LeftHandThumb2
                                {
                                    OFFSET 2.049150 0.000000 1.336400
                                    CHANNELS 3 Zrotation Xrotation Yrotation
                                    JOINT LeftHandThumb3
                                    {
                                        OFFSET 2.672810 0.000000 0.000000
                                        CHANNELS 3 Zrotation Xrotation Yrotation
                                        End Site
                                        {
                                            OFFSET 2.381310 0.000000 0.000000
                                        }
                                    }
                                }
                            }
                            JOINT LeftHandIndex1
                            {
                                OFFSET 7.583340 0.000000 2.949080
                                CHANNELS 3 Zrotation Xrotation Yrotation
                                JOINT LeftHandIndex2
                                {
                                    OFFSET 4.454680 0.000000 0.000000
                                    CHANNELS 3 Zrotation Xrotation Yrotation
                                    JOINT LeftHandIndex3
                                    {
                                        OFFSET 2.227340 0.000000 0.000000
                                        CHANNELS 3 Zrotation Xrotation Yrotation
                                        End Site
                                        {
                                            OFFSET 1.984424 0.000000 0.000000
                                        }
                                    }
                                }
                            }
                            JOINT LeftHandMiddle1
                            {
                                OFFSET 7.583340 0.000000 0.977409
                                CHANNELS 3 Zrotation Xrotation Yrotation
                                JOINT LeftHandMiddle2
                                {
                                    OFFSET 4.900150 0.000000 0.000000
                                    CHANNELS 3 Zrotation Xrotation Yrotation
                                    JOINT LeftHandMiddle3
                                    {
                                        OFFSET 2.672810 0.000000 0.000000
                                        CHANNELS 3 Zrotation Xrotation Yrotation
                                        End Site
                                        {
                                            OFFSET 2.381310 0.000000 0.000000
                                        }
                                    }
                                }
                            }
                            JOINT LeftHandRing1
                            {
                                OFFSET 7.162050 0.000000 -0.977409
                                CHANNELS 3 Zrotation Xrotation Yrotation
                                JOINT LeftHandRing2
                                {
                                    OFFSET 4.454680 0.000000 0.000000
                                    CHANNELS 3 Zrotation Xrotation Yrotation
                                    JOINT LeftHandRing3
                                    {
                                        OFFSET 2.227340 0.000000 0.000000
                                        CHANNELS 3 Zrotation Xrotation Yrotation
                                        End Site
                                        {
                                            OFFSET 1.984424 0.000000 0.000000
                                        }
                                    }
                                }
                            }
                            JOINT LeftHandPinky1
                            {
                                OFFSET 6.740750 0.000000 -2.949080
                                CHANNELS 3 Zrotation Xrotation Yrotation
                                JOINT LeftHandPinky2
                                {
                                    OFFSET 3.563750 0.000000 0.000000
                                    CHANNELS 3 Zrotation Xrotation Yrotation
                                    JOINT LeftHandPinky3
                                    {
                                        OFFSET 1.781870 0.000000 0.000000
                                        CHANNELS 3 Zrotation Xrotation Yrotation
                                        End Site
                                        {
                                            OFFSET 1.587538 0.000000 0.000000
                                        }
                                    }
                                }
                            }
                        }
                    }
                }
            }
            JOINT RightShoulder
            {
                OFFSET -3.506990 17.990000 0.023591
                CHANNELS 3 Zrotation Xrotation Yrotation
                JOINT RightArm
                {
                    OFFSET -12.560999 0.000000 0.000000
                    CHANNELS 3 Zrotation Xrotation Yrotation
                    JOINT RightForeArm
                    {
                        OFFSET -22.903299 0.000000 0.000000
                        CHANNELS 3 Zrotation Xrotation Yrotation
                        JOINT RightHand
                        {
                            OFFSET -21.865299 0.000000 0.000000
                            CHANNELS 3 Zrotation Xrotation Yrotation
                            JOINT RightHandThumb1
                            {
                                OFFSET -1.853710 -2.106480 2.949080
                                CHANNELS 3 Zrotation Xrotation Yrotation
                                JOINT RightHandThumb2
                                {
                                    OFFSET -2.049150 0.000000 1.336400
                                    CHANNELS 3 Zrotation Xrotation Yrotation
                                    JOINT RightHandThumb3
                                    {
                                        OFFSET -2.672810 0.000000 0.000000
                                        CHANNELS 3 Zrotation Xrotation Yrotation
                                        End Site
                                        {
                                            OFFSET -2.381310 0.000000 0.000000
                                        }
                                    }
                                }
                            }
                            JOINT RightHandIndex1
                            {
                                OFFSET -7.583340 0.000000 2.949080
                                CHANNELS 3 Zrotation Xrotation Yrotation
                                JOINT RightHandIndex2
                                {
                                    OFFSET -4.454680 0.000000 0.000000
                                    CHANNELS 3 Zrotation Xrotation Yrotation
                                    JOINT RightHandIndex3
                                    {
                                        OFFSET -2.227340 0.000000 0.000000
                                        CHANNELS 3 Zrotation Xrotation Yrotation
                                        End Site
                                        {
                                            OFFSET -1.984424 0.000000 0.000000
                                        }
                                    }
                                }
                            }
                            JOINT RightHandMiddle1
                            {
                                OFFSET -7.583340 0.000000 0.977409
                                CHANNELS 3 Zrotation Xrotation Yrotation
                                JOINT RightHandMiddle2
                                {
                                    OFFSET -4.900150 0.000000 0.000000
                                    CHANNELS 3 Zrotation Xrotation Yrotation
                                    JOINT RightHandMiddle3
                                    {
                                        OFFSET -2.672810 0.000000 0.000000
                                        CHANNELS 3 Zrotation Xrotation Yrotation
                                        End Site
                                        {
                                            OFFSET -2.381310 0.000000 0.000000
                                        }
                                    }
                                }
                            }
                            JOINT RightHandRing1
                            {
                                OFFSET -7.162050 0.000000 -0.977409
                                CHANNELS 3 Zrotation Xrotation Yrotation
                                JOINT RightHandRing2
                                {
                                    OFFSET -4.454680 0.000000 0.000000
                                    CHANNELS 3 Zrotation Xrotation Yrotation
                                    JOINT RightHandRing3
                                    {
                                        OFFSET -2.227340 0.000000 0.000000
                                        CHANNELS 3 Zrotation Xrotation Yrotation
                                        End Site
                                        {
                                            OFFSET -1.984424 0.000000 0.000000
                                        }
                                    }
                                }
                            }
                            JOINT RightHandPinky1
                            {
                                OFFSET -6.740750 0.000000 -2.949080
                                CHANNELS 3 Zrotation Xrotation Yrotation
                                JOINT RightHandPinky2
                                {
                                    OFFSET -3.563750 0.000000 0.000000
                                    CHANNELS 3 Zrotation Xrotation Yrotation
                                    JOINT RightHandPinky3
                                    {
                                        OFFSET -1.781870 0.000000 0.000000
                                        CHANNELS 3 Zrotation Xrotation Yrotation
                                        End Site
                                        {
                                            OFFSET -1.587538 0.000000 0.000000
                                        }
                                    }
                                }
                            }
                        }
                    }
                }
            }
        }
    }
    JOINT LeftUpLeg
    {
        OFFSET 8.909360 0.000000 0.000000
        CHANNELS 3 Zrotation Xrotation Yrotation
        JOINT LeftLeg
        {
            OFFSET -0.000000 -38.765602 0.000000
            CHANNELS 3 Zrotation Xrotation Yrotation
            JOINT LeftFoot
            {
                OFFSET -0.000000 -35.245003 0.000000
                CHANNELS 3 Zrotation Xrotation Yrotation
                JOINT LeftToeBase
                {
                    OFFSET -0.000000 -5.791090 13.364000
                    CHANNELS 3 Zrotation Xrotation Yrotation
                    End Site
                    {
                        OFFSET -0.000000 0.000000 3.563756
                    }
                }
            }
        }
    }
    JOINT RightUpLeg
    {
        OFFSET -8.909360 0.000000 0.000000
        CHANNELS 3 Zrotation Xrotation Yrotation
        JOINT RightLeg
        {
            OFFSET -0.000000 -38.765602 0.000000
            CHANNELS 3 Zrotation Xrotation Yrotation
            JOINT RightFoot
            {
                OFFSET -0.000000 -35.245003 0.000000
                CHANNELS 3 Zrotation Xrotation Yrotation
                JOINT RightToeBase
                {
                    OFFSET -0.000000 -5.791090 13.364000
                    CHANNELS 3 Zrotation Xrotation Yrotation
                    End Site
                    {
                        OFFSET -0.000000 0.000000 3.563756
                    }
                }
            }
        }
    }
}
MOTION
Frames:    4
Frame Time:    0.033333
-4.532042    58.471031    108.672729    1.229025    -19.635212    -0.089901    0.808667    26.538006    -1.910282    -0.903812    16.432426    -0.442722    2.251749    2.069789    -1.943186    1.768898    -19.850224    -1.584407    12.087851    -7.970968    -20.060604    -31.442389    13.510809    -6.139390    56.795792    -45.573505    -96.337868    -16.905960    -24.008772    -28.100830    -5.750473    9.935497    6.213504    -0.000000    0.000000    8.406166    -0.000000    0.000000    16.812332    -36.704906    23.897696    -28.519331    -85.724228    0.000000    0.000000    -42.862122    0.000000    0.000000    -57.906227    6.054225    -12.362886    -93.735245    0.000000    0.000000    -55.117619    0.000000    0.000000    -74.062515    -15.797441    -3.218573    -101.746239    0.000000    0.000000    -67.373116    0.000000    0.000000    -89.999992    -39.999996    0.000000    -110.000000    0.000000    0.000000    -80.000000    0.000000    0.000000    -16.367699    -6.284711    4.598673    26.130220    30.806463    11.010984    -76.063637    -43.024654    70.492012    9.837075    -35.560886    26.562550    2.674329    -1.209709    3.770007    0.000000    0.000000    0.000000    0.000000    0.000000    0.000000    23.785572    0.533758    1.210819    47.582424    0.000000    -0.000000    23.791216    0.000000    -0.000000    38.394005    -1.619438    -0.785232    68.180222    0.000000    -0.000000    38.423534    0.000000    -0.000000    52.950642    -4.205749    -2.176623    88.778023    0.000000    -0.000000    53.055843    0.000000    -0.000000    67.951378    -7.146936    -2.884667    110.000000    0.000000    -0.000000    68.131561    0.000000    -0.000000    29.283966    -23.611475    10.265329    -2.034739    81.384544    7.306336    -28.652424    -25.006901    -30.765791    0.424066    -4.436137    -1.736245    -27.731426    -20.658592    -2.918242    -9.415221    82.580124    6.727988    33.077770    -34.387012    27.656206    -0.440432    -1.839520    0.513146    
-4.519417    59.080219    108.897865    1.130607    -19.463497    -0.011321    0.911027    26.185911    -1.980616    -0.796639    15.679630    -0.479912    2.202636    2.493341    -1.947254    1.596034    -19.589317    -1.599804    12.103405    -7.799101    -19.999882    -31.641802    14.199535    -6.193174    56.150406    -45.472687    -96.869858    -17.102619    -24.182081    -28.110712    -5.835220    9.957405    6.137688    -0.000000    0.000000    8.307147    -0.000000    0.000000    16.614296    -37.021820    24.937044    -29.208176    -87.233192    0.000000    0.000000    -43.616596    0.000000    0.000000    -58.350220    6.801733    -12.700501    -94.746254    0.000000    0.000000    -55.623119    0.000000    0.000000    -74.365074    -15.407610    -3.395042    -102.259270    0.000000    0.000000    -67.629639    0.000000    0.000000    -89.999992    -39.999996    0.000000    -110.000000    0.000000    0.000000    -80.000000    0.000000    0.000000    -16.226545    -6.043816    4.568264    25.809385    31.688795    10.955641    -76.212189    -42.911228    70.411308    9.976107    -36.266659    26.757267    2.776595    -1.129216    3.713502    0.000000    0.000000    0.000000    0.000000    0.000000    0.000000    23.703764    0.523091    1.191234    47.418396    0.000000    -0.000000    23.709198    0.000000    -0.000000    38.308582    -1.636728    -0.808758    68.070335    0.000000    -0.000000    38.338795    0.000000    -0.000000    52.861507    -4.230351    -2.202488    88.722252    0.000000    -0.000000    52.968403    0.000000    -0.000000    67.858658    -7.179385    -2.911136    110.000000    0.000000    -0.000000    68.041321    0.000000    -0.000000    29.179264    -22.951038    10.363994    -1.995632    80.137299    7.948225    -28.639458    -24.382933    -31.278557    0.426993    -4.419339    -1.741267    -27.514017    -19.868158    -2.822584    -5.746648    81.280655    2.832346    32.831741    -34.005318    27.496243    -0.429280    -1.889243    0.490346    
-4.530681    59.554691    109.088310    0.981971    -19.414003    -0.004333    0.950133    25.932671    -1.983845    -0.640694    15.185099    -0.503030    2.195029    2.684931    -1.934942    1.447927    -19.403078    -1.593611    12.158032    -7.770579    -19.924183    -31.758736    14.784634    -6.313725    55.686516    -45.402668    -97.289482    -17.168104    -24.363016    -28.077251    -5.902137    10.033031    6.169426    -0.000000    0.000000    8.354801    -0.000000    0.000000    16.709602    -37.117737    25.692333    -29.807184    -88.128151    0.000000    0.000000    -44.064075    0.000000    0.000000    -58.600391    7.363772    -12.991219    -95.345871    0.000000    0.000000    -55.922932    0.000000    0.000000    -74.552742    -15.110203    -3.538845    -102.563576    0.000000    0.000000    -67.781792    0.000000    0.000000    -89.999992    -39.999996    0.000000    -110.000000    0.000000    0.000000    -80.000000    0.000000    0.000000    -16.167471    -5.906252    4.515464    25.515820    32.248177    10.929650    -75.853012    -42.954441    70.723648    9.963586    -36.139450    26.787066    2.423748    -1.364520    3.838442    0.000000    0.000000    0.000000    0.000000    0.000000    0.000000    23.522091    0.490846    1.127520    47.053841    0.000000    -0.000000    23.526920    0.000000    -0.000000    38.171391    -1.668372    -0.857687    67.826073    0.000000    -0.000000    38.202854    0.000000    -0.000000    52.769844    -4.258769    -2.235229    88.598312    0.000000    -0.000000    52.878792    0.000000    -0.000000    67.815285    -7.200895    -2.926118    110.000000    0.000000    -0.000000    67.999443    0.000000    -0.000000    29.278730    -22.302908    10.667928    -1.457453    79.148193    7.808284    -28.606596    -23.897587    -31.716713    0.439856    -4.357588    -1.765370    -27.204058    -19.188486    -2.952241    -5.375133    80.223801    2.281054    32.619293    -33.732159    27.345387    -0.415438    -1.915942    0.465542    
-4.545789    59.857941    109.235321    0.922635    -19.456438    0.096628    0.900381    25.735224    -2.040442    -0.506980    15.011361    -0.544833    2.218358    2.605397    -1.914852    1.406862    -19.284695    -1.574007    12.220600    -7.830134    -19.835373    -31.827715    15.168262    -6.533077    55.124535    -45.305408    -97.781914    -17.194695    -24.690496    -27.986362    -6.008574    10.200157    6.294446    -0.000000    0.000000    8.525325    -0.000000    0.000000    17.050650    -37.110802    24.874420    -29.072123    -87.313171    0.000000    0.000000    -43.656586    0.000000    0.000000    -58.382839    6.739329    -12.631249    -94.799820    0.000000    0.000000    -55.649914    0.000000    0.000000    -74.372681    -15.444714    -3.365856    -102.286469    0.000000    0.000000    -67.643250    0.000000    0.000000    -89.999992    -39.999996    0.000000    -110.000000    0.000000    0.000000    -80.000000    0.000000    0.000000    -16.182568    -5.856288    4.472556    25.403509    32.577312    10.933738    -75.238251    -43.133621    71.145126    9.891836    -35.580830    26.729061    2.153701    -1.541964    3.927794    0.000000    0.000000    0.000000    0.000000    0.000000    0.000000    23.528158    0.469394    1.077943    47.065151    0.000000    -0.000000    23.532572    0.000000    -0.000000    38.178757    -1.686951    -0.888551    67.833649    0.000000    -0.000000    38.210907    0.000000    -0.000000    52.779560    -4.269886    -2.248618    88.602158    0.000000    -0.000000    52.889217    0.000000    -0.000000    67.828346    -7.200010    -2.923858    110.000000    0.000000    -0.000000    68.012337    0.000000    -0.000000    29.258142    -21.852093    10.820931    -0.668922    78.505905    7.165700    -28.563517    -23.640263    -31.901344    0.444138    -4.315665    -1.769724    -27.009645    -18.613317    -3.091945    -5.592572    79.538971    2.286641    32.561790    -33.559120    27.326073    -0.406239    -1.927022    0.449724    
